<?xml version="1.0" standalone="no"?><svg xmlns="http://www.w3.org/2000/svg" viewBox="0 0 1440 320"><path fill="#b10a0a" fill-opacity="1" d="M0,32L14.1,42.7C28.2,53,56,75,85,101.3C112.9,128,141,160,169,149.3C197.6,139,226,85,254,58.7C282.4,32,311,32,339,69.3C367.1,107,395,181,424,208C451.8,235,480,213,508,218.7C536.5,224,565,256,593,266.7C621.2,277,649,267,678,272C705.9,277,734,299,762,272C790.6,245,819,171,847,128C875.3,85,904,75,932,64C960,53,988,43,1016,53.3C1044.7,64,1073,96,1101,133.3C1129.4,171,1158,213,1186,208C1214.1,203,1242,149,1271,144C1298.8,139,1327,181,1355,170.7C1383.5,160,1412,96,1426,64L1440,32L1440,0L1425.9,0C1411.8,0,1384,0,1355,0C1327.1,0,1299,0,1271,0C1242.4,0,1214,0,1186,0C1157.6,0,1129,0,1101,0C1072.9,0,1045,0,1016,0C988.2,0,960,0,932,0C903.5,0,875,0,847,0C818.8,0,791,0,762,0C734.1,0,706,0,678,0C649.4,0,621,0,593,0C564.7,0,536,0,508,0C480,0,452,0,424,0C395.3,0,367,0,339,0C310.6,0,282,0,254,0C225.9,0,198,0,169,0C141.2,0,113,0,85,0C56.5,0,28,0,14,0L0,0Z"></path></svg>